<?xml version="1.0" standalone="no"?>
<!DOCTYPE svg PUBLIC "-//W3C//DTD SVG 20010904//EN" "http://www.w3.org/TR/2001/REC-SVG-20010904/DTD/svg10.dtd">
<!-- Created using Krita: https://krita.org -->
<svg xmlns="http://www.w3.org/2000/svg" 
    xmlns:xlink="http://www.w3.org/1999/xlink"
    xmlns:krita="http://krita.org/namespaces/svg/krita"
    xmlns:sodipodi="http://sodipodi.sourceforge.net/DTD/sodipodi-0.dtd"
    width="864pt"
    height="864pt"
    viewBox="0 0 864 864">
<defs/>
<path id="shape0" transform="matrix(1.6875 0 0 1.6875 278.479238906259 226.486874880748)" fill="#ffffff" stroke-opacity="0" stroke="#000000" stroke-width="0" stroke-linecap="square" stroke-linejoin="bevel" d="M152.504 342.714M152.504 342.714C156.809 345.431 161.493 348.964 166.459 351.366C176.475 356.21 187.126 359.843 198.346 358.53C211.674 356.97 224.66 353.588 235.006 344.14C239.198 340.312 243.2 336.246 247.008 332.035C250.002 328.724 252.589 328.747 257.554 332.866C260.839 335.59 260.307 338.538 257.672 341.752C250.902 350.009 243.166 356.718 233.778 362.211C222.634 368.732 210.773 371.657 198.426 372.582C187.015 373.437 175.623 371.411 165.158 366.434C156.787 362.453 148.766 357.736 140.493 353.294M149.447 74.8331C145.227 71.5898 141.008 68.3456 136.788 65.1033C128.214 58.5162 117.818 56.369 107.719 54.0561C100.147 52.3219 92.1398 52.5039 84.3352 51.7447C83.2756 51.6416 82.216 51.1241 81.2413 50.6306C76.0516 48.0034 72.9689 49.7453 72.9812 55.3921C72.9923 60.5524 72.9815 65.7156 73.1567 70.8715C73.2602 73.9202 74.0282 76.3865 76.9982 78.492C82.2244 82.197 84.4326 87.5184 84.201 94.3193C83.7707 106.953 84.0757 119.615 84.2564 132.263C84.354 139.09 83.2832 145.259 77.4451 149.771C76.0499 150.849 74.3285 152.486 74.1772 154.007C73.7385 158.416 74.0218 162.897 74.0218 167.405C74.8541 167.555 75.3206 167.73 75.7779 167.709C89.9486 167.049 104.123 166.451 118.285 165.635C121.668 165.44 125.023 164.576 128.367 163.899C138.28 161.893 148.195 159.886 158.082 157.755C161.996 156.911 165.989 156.095 169.647 154.556C171.298 153.861 173.392 151.338 173.273 149.8C172.659 141.828 171.675 133.857 170.281 125.981C168.822 117.739 166.989 109.544 164.888 101.44C162.295 91.4406 156.971 82.8716 149.447 74.8331M83.6492 6.79032C70.2099 10.4387 56.9694 9.61083 43.9555 4.8642C40.1167 3.46407 36.4493 1.59336 32.6082 0.201038C31.5403 -0.186063 29.9533 0.0166496 28.9067 0.546191C20.5536 4.77245 11.9889 7.93444 2.37984 6.84488C1.63637 6.76056 0.854874 7.01168 0.00759883 7.11728C0.00759883 17.5666 0.0234228 27.711 0.00276183 37.8555C-0.0148162 46.4837 -0.163421 45.9855 8.03886 43.845C16.7359 41.5753 25.66 39.9538 34.5834 38.8342C44.1111 37.6388 53.7454 37.1195 63.3499 36.7782C68.629 36.5906 73.9581 37.8237 79.2381 37.6424C96.6908 37.0432 113.474 40.0453 129.826 45.9845C130.607 46.2682 132.689 45.3829 132.687 45.049C132.664 40.1467 132.275 35.2473 132.201 30.3438C132.095 23.3096 132.174 16.2727 132.174 9.10041C122.288 8.46285 112.484 5.85614 104.672 0.498782C97.5268 2.73819 91.0273 4.77523 83.6492 6.79032" sodipodi:nodetypes="ccccccccccccccccccccccccccccccccccccccccccccccccccc"/><path id="shape1" transform="matrix(1.6875 0 0 1.6875 390.234375 865.184844835945)" fill="#000000" stroke-opacity="0" stroke="#000000" stroke-width="0" stroke-linecap="square" stroke-linejoin="bevel" d="M0 0.29787C0.016205 0.115497 0.282394 -0.0669373 0.649292 0.0242487C0.75 0.29787 0.25 0.29787 0 0.29787Z" sodipodi:nodetypes="ccc"/><path id="shape2" transform="matrix(1.6875 0 0 1.6875 204.162121301446 506.339710875)" fill="#ffffff" stroke-opacity="0" stroke="#000000" stroke-width="0" stroke-linecap="square" stroke-linejoin="bevel" d="M80.3626 13.998C87.8848 14.3333 94.9704 14.9855 102.05 14.9292C119.452 14.7908 136.875 14.7666 154.242 13.8234C164.226 13.2812 174.14 11.1754 184.043 9.51633C191.815 8.21414 199.571 6.72809 207.234 4.90198C210.749 4.06445 214.022 2.21472 218.217 0.49002C218.833 11.3756 219.694 21.6629 219.928 31.9644C220.22 44.885 220.548 57.8465 219.864 70.7375C218.944 88.0885 218.061 105.535 211.958 122.142C207.337 134.714 201.672 146.823 193.612 157.497C183.826 170.458 171.436 180.295 156.534 187.299C146.948 191.805 137.198 194.291 126.892 196.382C118.597 198.064 110.464 198.311 102.496 197.559C93.2226 196.684 83.953 194.139 75.08 191.14C67.5762 188.604 60.4371 184.745 53.5061 180.819C45.1254 176.072 38.0083 169.794 31.6802 162.328C24.8658 154.288 19.5698 145.5 14.7337 136.251C7.62448 122.655 3.54669 108.044 2.28089 93.0164C0.65999 73.7722 0.610086 54.388 0.136072 35.058C-0.137747 23.8918 0.0863592 12.7133 0.0863592 0C27.0474 8.75488 53.1721 13.3525 80.3626 13.998M103.657 112.707C103.918 112.913 121.332 112.089 121.616 112.129C133.15 108.769 133.628 110.756 145.313 98.139C145.844 97.5658 146.169 96.7765 146.498 96.0465C148.146 92.396 146.882 89.2995 144.105 87.0005C141.131 84.5381 138.854 86.28 136.605 88.7542C132.311 93.4778 127.909 98.6656 121.3 99.6176C115.283 100.484 109.046 99.7244 102.913 99.9124C94.9988 100.155 90.1585 94.7003 85.2087 90.0253C82.5684 87.5315 80.5564 84.6017 76.836 86.6476C72.2317 89.1794 71.6723 93.052 75.0044 97.3331C76.9653 99.8525 79.0905 102.623 81.787 104.114C87.8197 107.449 86.1568 106.582 93.3176 109.556M149.847 36.9672C142.991 42.7182 140.49 56.2489 144.995 63.9942C147.022 67.4799 150 69.5104 154.326 69.0167C158.242 68.5697 160.342 66.5085 162.244 62.9467C165.781 56.3197 163.829 49.8458 162.759 43.4094C161.99 38.787 154.743 35.3547 149.847 36.9672M59.3207 41.1021C57.2587 47.6025 55.9007 54.1676 57.947 60.9343C59.1704 64.9797 61.6275 68.2868 65.9242 68.8498C69.5529 69.3253 72.8961 68.6114 75.2585 64.584C78.848 58.4643 78.9415 52.1056 77.3494 45.8461C74.7207 35.5109 68.0035 33.6974 59.3207 41.1021Z" sodipodi:nodetypes="cccccccccccccccccccccccccccccccccccccccccccccc"/><path id="shape3" transform="matrix(1.6875 0 0 1.6875 173.430882602786 25.8784759543913)" fill="#ffffff" stroke-opacity="0" stroke="#000000" stroke-width="0" stroke-linecap="square" stroke-linejoin="bevel" d="M254.912 66.1558C255.801 69.6649 257.131 72.8302 257.037 75.953C256.751 85.5329 253.595 94.3173 248.069 102.158C240.663 112.667 230.065 117.448 217.604 118.64C213.593 119.024 209.859 119.545 206.814 115.137C205.575 113.343 201.024 112.982 198.153 113.343C191.31 114.203 185.342 112.359 179.056 109.717C189.127 98.031 197.541 86.5799 192.463 70.3614C185.211 71.2838 184.28 77.0803 182.275 81.4803C175.158 97.0968 153.792 113.608 135.219 112.896C127.683 112.607 120.158 113.041 112.647 111.702C104.91 110.323 98.5369 106.509 92.68 101.566C90.1807 99.4567 87.9062 97.0021 85.1623 95.2943C83.7428 94.4107 81.1235 94.0707 79.7491 94.8034C77.3237 96.0965 76.0431 98.3962 78.1116 101.394C79.4511 103.335 80.271 105.635 81.4763 108.084C73.7084 112.154 66.2309 113.461 58.2318 109.16C53.0102 106.352 48.3313 109.282 48.2631 115.262C48.2275 118.383 47.4016 119.888 43.9808 119.633C27.7315 118.425 13.8215 112.202 5.60668 97.8934C-3.22476 82.511 -1.97415 64.5689 11.8683 50.762C16.5039 46.1384 21.9968 42.0045 27.8003 39.0066C36.9744 34.2676 47.0067 35.1023 56.6964 36.6615C57.2145 42.9749 57.5763 48.8708 58.2133 54.7368C58.8878 60.9475 62.9032 64.929 67.9811 67.8605C69.1171 68.5163 71.2371 68.4826 72.3378 67.8223C73.0522 67.3937 73.0444 65.2048 72.8323 63.8898C72.1309 59.542 70.4637 55.228 70.4933 50.91C70.553 42.1917 72.5378 34.0419 78.1537 26.7192C85.7137 16.8618 94.1485 8.29349 106.166 4.46384C113.16 2.23511 120.568 -0.0871572 127.761 0.00251684C141.428 0.172921 154.436 3.49872 165.624 12.4724C174.575 19.6523 181.287 28.106 185.267 38.8726C186.438 42.04 189.294 42.4297 192.309 41.2032C198.059 38.8642 203.45 36.0347 210.02 35.5386C221.955 34.6372 232.244 38.0095 241.236 45.3875C247.732 50.7173 252.59 57.4236 254.912 66.1558Z" sodipodi:nodetypes="ccccccccccccccccccccccccccccccccccccc"/><path id="shape4" transform="matrix(1.6875 0 0 1.6875 401.634903438259 309.904809658362)" fill="#ffffff" stroke-opacity="0" stroke="#000000" stroke-width="0" stroke-linecap="square" stroke-linejoin="bevel" d="M76.7143 25.6549C83.9896 33.4387 89.3143 42.0078 91.907 52.0076C94.0081 60.111 95.8408 68.3061 97.2996 76.5478C98.6937 84.4239 99.678 92.3952 100.292 100.367C100.411 101.906 98.317 104.428 96.6656 105.123C93.0077 106.663 89.0148 107.479 85.1009 108.322C75.2136 110.453 65.2992 112.46 55.3854 114.466C52.0419 115.143 48.6871 116.007 45.3038 116.202C31.1419 117.019 16.9675 117.616 2.79679 118.276C2.33947 118.298 1.87299 118.122 1.04067 117.972C1.04067 113.464 0.75736 108.983 1.19602 104.574C1.34736 103.053 3.06876 101.416 4.46396 100.338C10.3021 95.8266 11.3728 89.6573 11.2753 82.8305C11.0946 70.1826 10.7896 57.5198 11.2199 44.8864C11.4515 38.0855 9.24323 32.7641 4.01705 29.0591C1.04711 26.9537 0.279089 24.4873 0.175527 21.4387C0.000387296 16.2828 0.0112063 11.1196 3.62958e-05 5.95929C-0.0122007 0.312437 3.07046 -1.42944 8.26014 1.19777C9.23482 1.69121 10.2944 2.20878 11.3541 2.31187C19.1587 3.07109 27.1654 2.8891 34.7375 4.62327C44.8366 6.93617 55.2325 9.08334 63.8066 15.6705C68.0269 18.9128 72.246 22.1569 76.7143 25.6549Z" sodipodi:nodetypes="cccccccccccccccccccccc"/><path id="shape5" transform="matrix(1.6875 0 0 1.6875 209.230535637435 311.906725297063)" fill="#ffffff" stroke-opacity="0" stroke="#000000" stroke-width="0" stroke-linecap="square" stroke-linejoin="bevel" d="M19.5742 108.91C15.2228 107.535 11.2643 106.338 7.31975 105.095C-0.618425 102.595 -0.874109 101.907 0.889479 93.701C1.63769 90.2195 1.93886 86.5891 1.98791 83.02C2.15413 70.9221 5.5838 59.5985 9.41089 48.2691C12.7517 38.3792 18.5033 30.2722 25.7087 22.9416C35.2254 13.2595 47.0457 7.85831 60.0292 5.31168C70.5229 3.25338 81.2716 2.4932 91.9091 1.17246C92.7304 1.07047 93.6254 1.27018 94.3866 1.02295C99.7433 -0.716824 99.7123 -0.741467 99.9748 5.00563C100.068 7.03762 100.279 9.06531 100.474 11.0913C101.352 20.208 98.0146 27.1562 91.4679 33.7597C88.5064 36.747 88.233 43.1068 88.054 47.9848C87.7599 55.9975 88.4929 64.0516 88.8746 72.0843C89.1677 78.2518 89.0682 84.5023 90.1061 90.5507C91.0096 95.8166 94.5269 99.7351 99.8446 101.774C99.8446 106.674 99.8446 111.632 99.8446 117.795C88.6765 116.963 77.7518 116.159 66.829 115.33C61.6084 114.934 56.3493 114.774 51.1821 114.005C42.3838 112.697 33.6481 110.97 24.8765 109.475C23.2656 109.201 21.6089 109.196 19.5742 108.91Z" sodipodi:nodetypes="ccccccccccccccccccccc"/><path id="shape6" transform="matrix(1.6875 0 0 1.6875 278.47923890626 226.486874880748)" fill="#ffffff" stroke-opacity="0" stroke="#000000" stroke-width="0" stroke-linecap="square" stroke-linejoin="bevel" d="M84.0885 6.80129C91.0273 4.77523 97.5268 2.73819 104.672 0.498782C112.484 5.85614 122.288 8.46285 132.174 9.10041C132.174 16.2727 132.095 23.3096 132.201 30.3438C132.275 35.2473 132.664 40.1467 132.687 45.049C132.689 45.3829 130.607 46.2682 129.826 45.9845C113.474 40.0453 96.6908 37.0432 79.2381 37.6424C73.9581 37.8237 68.629 36.5906 63.3499 36.7782C53.7454 37.1195 44.1111 37.6388 34.5834 38.8342C25.66 39.9538 16.7359 41.5753 8.03886 43.845C-0.163421 45.9855 -0.0148162 46.4837 0.00276183 37.8555C0.0234228 27.711 0.00759883 17.5666 0.00759883 7.11728C0.854874 7.01168 1.63637 6.76056 2.37984 6.84488C11.9889 7.93444 20.5536 4.77245 28.9067 0.546191C29.9533 0.0166496 31.5403 -0.186063 32.6082 0.201038C36.4493 1.59336 40.1167 3.46407 43.9555 4.8642C56.9694 9.61083 70.2099 10.4387 84.0885 6.80129Z" sodipodi:nodetypes="ccccccccccccccccc"/><path id="shape7" transform="matrix(1.6875 0 0 1.6875 379.670252097494 371.694585375)" fill="#ffffff" stroke-opacity="0" stroke="#000000" stroke-width="0" stroke-linecap="square" stroke-linejoin="bevel" d="M12.9454 34.7316C12.9417 39.2279 12.9675 43.2256 12.936 47.223C12.9066 50.967 9.84363 54.4941 6.57768 54.6181C2.35518 54.7785 0.087827 52.2339 0.09239 47.4248C0.10391 35.2659 0.252912 23.1038 0.00901598 10.9497C-0.091113 5.95924 0.567533 1.82431 5.82588 0C12.7684 1.86925 13.0978 7.3573 12.9785 13.2466C12.8368 20.2394 12.9481 27.2373 12.9454 34.7316Z" sodipodi:nodetypes="cccccccc"/>
</svg>
